<svg xmlns="http://www.w3.org/2000/svg" xmlns:xlink="http://www.w3.org/1999/xlink" width="51" height="7" viewBox="0 0 51 7"><defs><path id="cjmpa" d="M1240.848 2060.946a.473.473 0 0 0 .127-.499.495.495 0 0 0-.405-.331l-1.695-.239a.221.221 0 0 1-.167-.117l-.758-1.489a.5.5 0 0 0-.45-.271.5.5 0 0 0-.45.271l-.758 1.489a.221.221 0 0 1-.167.117l-1.695.239a.495.495 0 0 0-.405.331.473.473 0 0 0 .127.499l1.226 1.158c.053.05.076.121.064.19l-.29 1.637a.466.466 0 0 0 .11.394c.15.172.41.225.62.118l1.515-.772a.233.233 0 0 1 .206 0l1.516.772a.51.51 0 0 0 .619-.118.466.466 0 0 0 .11-.394l-.29-1.636a.21.21 0 0 1 .064-.19z"/><path id="cjmpb" d="M1229.848 2060.946a.473.473 0 0 0 .127-.499.495.495 0 0 0-.405-.331l-1.695-.239a.221.221 0 0 1-.167-.117l-.758-1.489a.5.5 0 0 0-.45-.271.5.5 0 0 0-.45.271l-.758 1.489a.221.221 0 0 1-.167.117l-1.695.239a.495.495 0 0 0-.405.331.473.473 0 0 0 .127.499l1.226 1.158c.053.05.076.121.064.19l-.29 1.637a.466.466 0 0 0 .11.394c.15.172.41.225.62.118l1.515-.772a.233.233 0 0 1 .206 0l1.516.772a.51.51 0 0 0 .619-.118.466.466 0 0 0 .11-.394l-.29-1.636a.21.21 0 0 1 .064-.19z"/><path id="cjmpc" d="M1218.848 2060.946a.473.473 0 0 0 .127-.499.495.495 0 0 0-.405-.331l-1.695-.239a.221.221 0 0 1-.167-.117l-.758-1.489a.5.5 0 0 0-.45-.271.5.5 0 0 0-.45.271l-.758 1.489a.221.221 0 0 1-.167.117l-1.695.239a.495.495 0 0 0-.405.331.473.473 0 0 0 .127.499l1.226 1.158c.053.05.076.121.064.19l-.29 1.637a.466.466 0 0 0 .11.394c.15.172.41.225.62.118l1.515-.772a.233.233 0 0 1 .206 0l1.516.772a.51.51 0 0 0 .619-.118.466.466 0 0 0 .11-.394l-.29-1.636a.21.21 0 0 1 .064-.19z"/><path id="cjmpd" d="M1207.848 2060.946a.473.473 0 0 0 .127-.499.495.495 0 0 0-.405-.331l-1.695-.239a.221.221 0 0 1-.167-.117l-.758-1.489a.5.5 0 0 0-.45-.271.5.5 0 0 0-.45.271l-.758 1.489a.221.221 0 0 1-.167.117l-1.695.239a.495.495 0 0 0-.405.331.473.473 0 0 0 .127.499l1.226 1.158c.053.05.076.121.064.19l-.29 1.637a.466.466 0 0 0 .11.394c.15.172.41.225.62.118l1.515-.772a.233.233 0 0 1 .206 0l1.516.772a.51.51 0 0 0 .619-.118.466.466 0 0 0 .11-.394l-.29-1.636a.21.21 0 0 1 .064-.19z"/><path id="cjmpe" d="M1196.848 2060.946a.473.473 0 0 0 .127-.499.495.495 0 0 0-.405-.331l-1.695-.239a.221.221 0 0 1-.167-.117l-.758-1.489a.5.5 0 0 0-.45-.271.5.5 0 0 0-.45.271l-.758 1.489a.221.221 0 0 1-.167.117l-1.695.239a.495.495 0 0 0-.405.331.473.473 0 0 0 .127.499l1.226 1.158c.053.05.076.121.064.19l-.29 1.637a.466.466 0 0 0 .11.394c.15.172.41.225.62.118l1.515-.772a.233.233 0 0 1 .206 0l1.516.772a.51.51 0 0 0 .619-.118.466.466 0 0 0 .11-.394l-.29-1.636a.21.21 0 0 1 .064-.19z"/></defs><g><g transform="translate(-1190 -2058)"><g><use fill="#f1e55e" xlink:href="#cjmpa"/></g><g><use fill="#f1e55e" xlink:href="#cjmpb"/></g><g><use fill="#f1e55e" xlink:href="#cjmpc"/></g><g><use fill="#eaeaea" xlink:href="#cjmpd"/></g><g><use fill="#eaeaea" xlink:href="#cjmpe"/></g></g></g></svg>