<?xml version="1.0" encoding="UTF-8"?>
<svg width="18px" height="20px" viewBox="0 0 18 20" version="1.1" xmlns="http://www.w3.org/2000/svg" xmlns:xlink="http://www.w3.org/1999/xlink">
    <!-- Generator: sketchtool 52.3 (67297) - http://www.bohemiancoding.com/sketch -->
    <title>76FEA389-0543-4A08-81D0-32ABC5D55937</title>
    <desc>Created with sketchtool.</desc>
    <g id="Page-1" stroke="none" stroke-width="1" fill="none" fill-rule="evenodd">
        <g id="Index" transform="translate(-148.000000, -42.000000)" fill="#68C4FF" fill-rule="nonzero">
            <path d="M165.52,55.21 L163.72,53.4 L163.72,48.94 C163.769519,45.5153451 161.285479,42.578886 157.9,42.06 C155.977763,41.8068552 154.03961,42.3937588 152.580725,43.6707613 C151.121841,44.9477637 150.283539,46.7911688 150.28,48.73 L150.28,53.4 L148.48,55.21 C148.017762,55.6799467 147.881813,56.3809745 148.134878,56.9896387 C148.387942,57.5983028 148.980834,57.9963001 149.64,58 L153,58 L153,58.34 C153.097251,60.4536777 154.886018,62.0903992 157,62 C159.113982,62.0903992 160.902749,60.4536777 161,58.34 L161,58 L164.36,58 C165.019166,57.9963001 165.612058,57.5983028 165.865122,56.9896387 C166.118187,56.3809745 165.982238,55.6799467 165.52,55.21 Z M159,58.34 C158.884785,59.3392821 158.003406,60.0708267 157,60 C155.996594,60.0708267 155.115215,59.3392821 155,58.34 L155,58 L159,58 L159,58.34 Z M150.51,56 L151.69,54.82 C152.068039,54.4442036 152.280422,53.9330446 152.28,53.4 L152.28,48.73 C152.281102,47.3651872 152.871681,46.0673715 153.9,45.17 C154.914822,44.2505064 156.282088,43.8227787 157.64,44 C160.031128,44.3882448 161.771252,46.4781001 161.72,48.9 L161.72,53.4 C161.716926,53.931606 161.925627,54.4425623 162.3,54.82 L163.49,56 L150.51,56 Z" id="NotificationIcon"></path>
        </g>
    </g>
</svg>