<?xml version="1.0" encoding="UTF-8"?>
<svg width="17px" height="16px" viewBox="0 0 17 16" version="1.1" xmlns="http://www.w3.org/2000/svg" xmlns:xlink="http://www.w3.org/1999/xlink">
    <!-- Generator: sketchtool 52.3 (67297) - http://www.bohemiancoding.com/sketch -->
    <title>338C6F0F-A3C4-4A0B-8406-C748926A57D7</title>
    <desc>Created with sketchtool.</desc>
    <g id="Page-1" stroke="none" stroke-width="1" fill="none" fill-rule="evenodd">
        <g id="Index" transform="translate(-90.000000, -45.000000)" fill="#68C4FF">
            <path d="M93,47 L92,47 L92,59 L93,59 C93.5522847,59 94,59.4477153 94,60 C94,60.5522847 93.5522847,61 93,61 L91,61 C90.4477153,61 90,60.5522847 90,60 L90,46 C90,45.4477153 90.4477153,45 91,45 L93,45 C93.5522847,45 94,45.4477153 94,46 C94,46.5522847 93.5522847,47 93,47 Z M106.82,52.42 C107.070885,52.7757581 107.062797,53.2529484 106.8,53.6 L103.8,57.6 C103.611146,57.8518058 103.314757,58 103,58 C102.78363,58 102.573096,57.9298221 102.4,57.8 C102.187827,57.6408701 102.047558,57.4039723 102.010051,57.1414214 C101.972543,56.8788704 102.04087,56.6121732 102.2,56.4 L104,54 L96,54 C95.4477153,54 95,53.5522847 95,53 C95,52.4477153 95.4477153,52 96,52 L104.09,52 L102.37,49.58 C102.215009,49.3629079 102.153175,49.0928912 102.198245,48.8299848 C102.243314,48.5670784 102.391552,48.3330741 102.61,48.18 C103.060448,47.863933 103.681617,47.9711852 104,48.42 L106.82,52.42 Z" id="LogoutIcon"></path>
        </g>
    </g>
</svg>