<?xml version="1.0" encoding="UTF-8"?>
<svg width="25px" height="25px" viewBox="0 0 25 25" version="1.1" xmlns="http://www.w3.org/2000/svg" xmlns:xlink="http://www.w3.org/1999/xlink">
    <!-- Generator: sketchtool 52.3 (67297) - http://www.bohemiancoding.com/sketch -->
    <title>053574D0-B03A-4D0C-9FC4-7F8E5DF92C3F</title>
    <desc>Created with sketchtool.</desc>
    <g id="Page-1" stroke="none" stroke-width="1" fill="none" fill-rule="evenodd">
        <g id="Index" transform="translate(-115.000000, -758.000000)" fill="#FFFFFF">
            <g id="Add" transform="translate(90.000000, 733.000000)">
                <path d="M48.4375382,35.9376091 L39.0625055,35.9376091 L39.0625055,26.5624782 C39.0625055,25.6995272 38.3629856,25 37.5000436,25 C36.6371017,25 35.9375818,25.6995272 35.9375818,26.5624782 L35.9375818,35.9375218 L26.5626364,35.9375218 C25.6996945,35.9375218 25,36.637049 25,37.5 C25,38.362951 25.6996945,39.0624782 26.5626364,39.0624782 L35.9375818,39.0624782 L35.9375818,48.4375218 C35.9375818,49.3004728 36.6371017,50 37.5000436,50 C38.3629856,50 39.0625055,49.3004728 39.0625055,48.4375218 L39.0625055,39.0624782 L48.4375382,39.0624782 C49.3004801,39.0624782 50,38.3628637 50,37.5 C50.0000873,36.6371363 49.3004801,35.9376091 48.4375382,35.9376091 Z" id="dashboardplus"></path>
            </g>
        </g>
    </g>
</svg>